<svg xmlns="http://www.w3.org/2000/svg" viewBox="0 0 1886 520" width="1886" height="520" role="img" aria-labelledby="pt-title" xmlns:c2pa="http://c2pa.org/manifest"><metadata><c2pa:manifest>AAAWgmp1bWIAAAAeanVtZGMycGEAEQAQgAAAqgA4m3EDYzJwYQAAABZcanVtYgAAAEdqdW1kYzJtYQARABCAAACqADibcQN1cm46YzJwYTo0MDc5YjljZi1iYjUwLTQwNDMtYThhMS04OWEzMjk0MTAyOTkAAAADl2p1bWIAAAApanVtZGMyYXMAEQAQgAAAqgA4m3EDYzJwYS5hc3NlcnRpb25zAAAAALxqdW1iAAAARGp1bWRjYm9yABEAEIAAAKoAOJtxE2MycGEuaW5ncmVkaWVudC52MwAAAAAYYzJzaOGlcisjFLfGdUVSY8E8zmAAAABwY2JvcqNpZGM6Zm9ybWF0bWltYWdlL3N2Zyt4bWxqaW5zdGFuY2VJRHgseG1wOmlpZDo5M2VlMzI2NC0zYzQ4LTRlZmItYTFiNi0yZjMzMTBhMWZiNGJscmVsYXRpb25zaGlwaHBhcmVudE9mAAAB4mp1bWIAAABBanVtZGNib3IAEQAQgAAAqgA4m3ETYzJwYS5hY3Rpb25zLnYyAAAAABhjMnNol8puu2PkygE70mNmtFBhpwAAAZljYm9yomdhY3Rpb25zgqJmYWN0aW9ua2MycGEub3BlbmVkanBhcmFtZXRlcnOha2luZ3JlZGllbnRzgaJjdXJseC1zZWxmI2p1bWJmPWMycGEuYXNzZXJ0aW9ucy9jMnBhLmluZ3JlZGllbnQudjNkaGFzaFgg8V5aWnU4cxxZRdwYEjb83QvdekGc9fJuvf54W5Q/0c6kZmFjdGlvbngdY29tLmFudGhyb3BpYy5jbGF1ZGUucHJvdmlkZWRqcGFyYW1ldGVyc6F4H2NvbS5hbnRocm9waWMub3JpZ2luLWNvbmZpZGVuY2VndW5rbm93bmtkZXNjcmlwdGlvbnhmQ2xhdWRlIHByb3ZpZGVkIHRoaXMgZmlsZSBhdCB0aGUgcmVxdWVzdCBvZiBhIHVzZXIgYW5kIG1heSBoYXZlIGNyZWF0ZWQgb3IgbW9kaWZpZWQgdGhlIGZpbGUgY29udGVudHMubXNvZnR3YXJlQWdlbnShZG5hbWVmQ2xhdWRlcmFsbEFjdGlvbnNJbmNsdWRlZPUAAADIanVtYgAAAEBqdW1kY2JvcgARABCAAACqADibcRNjMnBhLmhhc2guZGF0YQAAAAAYYzJzaG7gC5RCY/YAI3MqnAU87QwAAACAY2JvcqVjYWxnZnNoYTI1NmNwYWRNAAAAAAAAAAAAAAAAAGRoYXNoWCBQEN/yiJoyrEn17c6b8OAKi9YfQXVnKEtm7R5z91TcomRuYW1lbmp1bWJmIG1hbmlmZXN0amV4Y2x1c2lvbnOBomVzdGFydBi+Zmxlbmd0aBkeBAAAAj5qdW1iAAAAJ2p1bWRjMmNsABEAEIAAAKoAOJtxA2MycGEuY2xhaW0udjIAAAACD2Nib3KlY2FsZ2ZzaGEyNTZpc2lnbmF0dXJleE1zZWxmI2p1bWJmPS9jMnBhL3VybjpjMnBhOjQwNzliOWNmLWJiNTAtNDA0My1hOGExLTg5YTMyOTQxMDI5OS9jMnBhLnNpZ25hdHVyZWppbnN0YW5jZUlEeCx4bXA6aWlkOmI0YzE3YzcwLTdhZTMtNGY3Ny05MDVjLWJlYjA2ZjAwODNjZHJjcmVhdGVkX2Fzc2VydGlvbnODomN1cmx4LXNlbGYjanVtYmY9YzJwYS5hc3NlcnRpb25zL2MycGEuaW5ncmVkaWVudC52M2RoYXNoWCDxXlpadThzHFlF3BgSNvzdC916QZz18m69/nhblD/RzqJjdXJseCpzZWxmI2p1bWJmPWMycGEuYXNzZXJ0aW9ucy9jMnBhLmFjdGlvbnMudjJkaGFzaFggyADnOlYZsS8k+9ntTdh8VLFygUuR6WeYvHJvg9RJeOqiY3VybHgpc2VsZiNqdW1iZj1jMnBhLmFzc2VydGlvbnMvYzJwYS5oYXNoLmRhdGFkaGFzaFggDOglLUF9bdYV+mYA1dRjUvU4CqwXvie59rYqb09haMV0Y2xhaW1fZ2VuZXJhdG9yX2luZm+jZG5hbWVvQW50aHJvcGljIEZpbGVzZ3ZlcnNpb25lMS4wLjBrc3BlY1ZlcnNpb25lMi40LjAAABA4anVtYgAAAChqdW1kYzJjcwARABCAAACqADibcQNjMnBhLnNpZ25hdHVyZQAAABAIY2JvctKEWQISogEmGCFZAgowggIGMIIBjaADAgECAhRA5aAK7sI50L64g/oGQgU9Z1UTADAKBggqhkjOPQQDAzBJMRcwFQYDVQQKEw5BbnRocm9waWMsIFBCQzEuMCwGA1UEAxMlQW50aHJvcGljIENvbnRlbnQgQ3JlZGVudGlhbHMgUm9vdCBDQTAeFw0yNjA4MDcxODQzNTZaFw0yODA4MDYxOTQzNTZaMEQxFzAVBgNVBAoTDkFudGhyb3BpYywgUEJDMSkwJwYDVQQDEyBBbnRocm9waWMgQ2xhdWRlIENvbnRlbnQgU2lnbmluZzBZMBMGByqGSM49AgEGCCqGSM49AwEHA0IABJh6CmvLUBgFFNU0vUKlOVtE6djd17L5SuwX0LemFisBM3dkd/3cyjxFA3Qo5S46fX0/ihY0VZ7mfb9KF703t5OjWDBWMA4GA1UdDwEB/wQEAwIHgDAVBgNVHSUEDjAMBgorBgEEAYPoXgIBMAwGA1UdEwEB/wQCMAAwHwYDVR0jBBgwFoAUzlHiBIFOZFsj+OPEz5o+nMHXXMIwCgYIKoZIzj0EAwMDZwAwZAIwMXMdFJ4BetLLVY7ORuE9noqbbAZOZn/aArXyTwFAZfKrPzxF2vPoJNf1+UCdg1XGAjBwX1zd9WGqYkqmL5SFqw1QySjr1zJfpJM9+1rdDwSPLMOPOjKuiXjoU/pUUeG9RwmhY3BhZFkNngAAAAAAAAAAAAAAAAAAAAAAAAAAAAAAAAAAAAAAAAAAAAAAAAAAAAAAAAAAAAAAAAAAAAAAAAAAAAAAAAAAAAAAAAAAAAAAAAAAAAAAAAAAAAAAAAAAAAAAAAAAAAAAAAAAAAAAAAAAAAAAAAAAAAAAAAAAAAAAAAAAAAAAAAAAAAAAAAAAAAAAAAAAAAAAAAAAAAAAAAAAAAAAAAAAAAAAAAAAAAAAAAAAAAAAAAAAAAAAAAAAAAAAAAAAAAAAAAAAAAAAAAAAAAAAAAAAAAAAAAAAAAAAAAAAAAAAAAAAAAAAAAAAAAAAAAAAAAAAAAAAAAAAAAAAAAAAAAAAAAAAAAAAAAAAAAAAAAAAAAAAAAAAAAAAAAAAAAAAAAAAAAAAAAAAAAAAAAAAAAAAAAAAAAAAAAAAAAAAAAAAAAAAAAAAAAAAAAAAAAAAAAAAAAAAAAAAAAAAAAAAAAAAAAAAAAAAAAAAAAAAAAAAAAAAAAAAAAAAAAAAAAAAAAAAAAAAAAAAAAAAAAAAAAAAAAAAAAAAAAAAAAAAAAAAAAAAAAAAAAAAAAAAAAAAAAAAAAAAAAAAAAAAAAAAAAAAAAAAAAAAAAAAAAAAAAAAAAAAAAAAAAAAAAAAAAAAAAAAAAAAAAAAAAAAAAAAAAAAAAAAAAAAAAAAAAAAAAAAAAAAAAAAAAAAAAAAAAAAAAAAAAAAAAAAAAAAAAAAAAAAAAAAAAAAAAAAAAAAAAAAAAAAAAAAAAAAAAAAAAAAAAAAAAAAAAAAAAAAAAAAAAAAAAAAAAAAAAAAAAAAAAAAAAAAAAAAAAAAAAAAAAAAAAAAAAAAAAAAAAAAAAAAAAAAAAAAAAAAAAAAAAAAAAAAAAAAAAAAAAAAAAAAAAAAAAAAAAAAAAAAAAAAAAAAAAAAAAAAAAAAAAAAAAAAAAAAAAAAAAAAAAAAAAAAAAAAAAAAAAAAAAAAAAAAAAAAAAAAAAAAAAAAAAAAAAAAAAAAAAAAAAAAAAAAAAAAAAAAAAAAAAAAAAAAAAAAAAAAAAAAAAAAAAAAAAAAAAAAAAAAAAAAAAAAAAAAAAAAAAAAAAAAAAAAAAAAAAAAAAAAAAAAAAAAAAAAAAAAAAAAAAAAAAAAAAAAAAAAAAAAAAAAAAAAAAAAAAAAAAAAAAAAAAAAAAAAAAAAAAAAAAAAAAAAAAAAAAAAAAAAAAAAAAAAAAAAAAAAAAAAAAAAAAAAAAAAAAAAAAAAAAAAAAAAAAAAAAAAAAAAAAAAAAAAAAAAAAAAAAAAAAAAAAAAAAAAAAAAAAAAAAAAAAAAAAAAAAAAAAAAAAAAAAAAAAAAAAAAAAAAAAAAAAAAAAAAAAAAAAAAAAAAAAAAAAAAAAAAAAAAAAAAAAAAAAAAAAAAAAAAAAAAAAAAAAAAAAAAAAAAAAAAAAAAAAAAAAAAAAAAAAAAAAAAAAAAAAAAAAAAAAAAAAAAAAAAAAAAAAAAAAAAAAAAAAAAAAAAAAAAAAAAAAAAAAAAAAAAAAAAAAAAAAAAAAAAAAAAAAAAAAAAAAAAAAAAAAAAAAAAAAAAAAAAAAAAAAAAAAAAAAAAAAAAAAAAAAAAAAAAAAAAAAAAAAAAAAAAAAAAAAAAAAAAAAAAAAAAAAAAAAAAAAAAAAAAAAAAAAAAAAAAAAAAAAAAAAAAAAAAAAAAAAAAAAAAAAAAAAAAAAAAAAAAAAAAAAAAAAAAAAAAAAAAAAAAAAAAAAAAAAAAAAAAAAAAAAAAAAAAAAAAAAAAAAAAAAAAAAAAAAAAAAAAAAAAAAAAAAAAAAAAAAAAAAAAAAAAAAAAAAAAAAAAAAAAAAAAAAAAAAAAAAAAAAAAAAAAAAAAAAAAAAAAAAAAAAAAAAAAAAAAAAAAAAAAAAAAAAAAAAAAAAAAAAAAAAAAAAAAAAAAAAAAAAAAAAAAAAAAAAAAAAAAAAAAAAAAAAAAAAAAAAAAAAAAAAAAAAAAAAAAAAAAAAAAAAAAAAAAAAAAAAAAAAAAAAAAAAAAAAAAAAAAAAAAAAAAAAAAAAAAAAAAAAAAAAAAAAAAAAAAAAAAAAAAAAAAAAAAAAAAAAAAAAAAAAAAAAAAAAAAAAAAAAAAAAAAAAAAAAAAAAAAAAAAAAAAAAAAAAAAAAAAAAAAAAAAAAAAAAAAAAAAAAAAAAAAAAAAAAAAAAAAAAAAAAAAAAAAAAAAAAAAAAAAAAAAAAAAAAAAAAAAAAAAAAAAAAAAAAAAAAAAAAAAAAAAAAAAAAAAAAAAAAAAAAAAAAAAAAAAAAAAAAAAAAAAAAAAAAAAAAAAAAAAAAAAAAAAAAAAAAAAAAAAAAAAAAAAAAAAAAAAAAAAAAAAAAAAAAAAAAAAAAAAAAAAAAAAAAAAAAAAAAAAAAAAAAAAAAAAAAAAAAAAAAAAAAAAAAAAAAAAAAAAAAAAAAAAAAAAAAAAAAAAAAAAAAAAAAAAAAAAAAAAAAAAAAAAAAAAAAAAAAAAAAAAAAAAAAAAAAAAAAAAAAAAAAAAAAAAAAAAAAAAAAAAAAAAAAAAAAAAAAAAAAAAAAAAAAAAAAAAAAAAAAAAAAAAAAAAAAAAAAAAAAAAAAAAAAAAAAAAAAAAAAAAAAAAAAAAAAAAAAAAAAAAAAAAAAAAAAAAAAAAAAAAAAAAAAAAAAAAAAAAAAAAAAAAAAAAAAAAAAAAAAAAAAAAAAAAAAAAAAAAAAAAAAAAAAAAAAAAAAAAAAAAAAAAAAAAAAAAAAAAAAAAAAAAAAAAAAAAAAAAAAAAAAAAAAAAAAAAAAAAAAAAAAAAAAAAAAAAAAAAAAAAAAAAAAAAAAAAAAAAAAAAAAAAAAAAAAAAAAAAAAAAAAAAAAAAAAAAAAAAAAAAAAAAAAAAAAAAAAAAAAAAAAAAAAAAAAAAAAAAAAAAAAAAAAAAAAAAAAAAAAAAAAAAAAAAAAAAAAAAAAAAAAAAAAAAAAAAAAAAAAAAAAAAAAAAAAAAAAAAAAAAAAAAAAAAAAAAAAAAAAAAAAAAAAAAAAAAAAAAAAAAAAAAAAAAAAAAAAAAAAAAAAAAAAAAAAAAAAAAAAAAAAAAAAAAAAAAAAAAAAAAAAAAAAAAAAAAAAAAAAAAAAAAAAAAAAAAAAAAAAAAAAAAAAAAAAAAAAAAAAAAAAAAAAAAAAAAAAAAAAAAAAAAAAAAAAAAAAAAAAAAAAAAAAAAAAAAAAAAAAAAAAAAAAAAAAAAAAAAAAAAAAAAAAAAAAAAAAAAAAAAAAAAAAAAAAAAAAAAAAAAAAAAAAAAAAAAAAAAAAAAAAAAAAAAAAAAAAAAAAAAAAAAAAAAAAAAAAAAAAAAAAAAAAAAAAAAAAAAAAAAAAAAAAAAAAAAAAAAAAAAAAAAAAAAAAAAAAAAAAAAAAAAAAAAAAAAAAAAAAAAAAAAAAAAAAAAAAAAAAAAAAAAAAAAAAAAAAAAAAAAAAAAAAAAAAAAAAAAAAAAAAAAAAAAAAAAAAAAAAAAAAAAAAAAAAAAAAAAAAAAAAAAAAAAAAAAAAAAAAAAAAAAAAAAAAAAAAAAAAAAAAAAAAAAAAAAAAAAAAAAAAAAAAAAAAAAAAAAAAAAAAAAAAAAAAAAAAAAAAAAAAAAAAAAAAAAAAAAAAAAAAAAAAAAAAAAAAAAAAAAAAAAAAAAAAAAAAAAAAAAAAAAAAAAAAAAAAAAAAAAAAAAAAAAAAAAAAAAAAAAAAAAAAAAAAAAAAAAAAAAAAAAAAAAAAAAAAAAAAAAAAAAAAAAAAAAAAAAAAAAAAAAAAAAAAAAAAAAAAAAAAAAAAAAAAAAAAAAAAAAAAAAAAAAAAAAAAAAAAAAAAAAAAAAAAAAAAAAAAAAAAAAAAAAAAAAAAAAAAAAAAAAAAAAAAAAAAAAAAAAAAAAAAAAAAAAAAAAAAAAAAAAAAAAAAAAAAAAAAAAAAAAAAAAAAAAAAAAAAAAAAAAAAAAAAAAAAAAAAAAAAAAAAAAAAAAAAAAAAAAAAAAAAAAAAAAAAAAAAAAAAAAAAAAAAAAAAAAAAAAAAAAAAAAAAAAAAAAAAAAAAAAAAAAAAAAAAAAAAAAAAAAAAAAAAAAAAAAAAAAAAAAAAAAAAAAAAAAAAAAAAAAAAAAAAAAAAAAAAAAAAAAAAAAAAAAAAAAAAAAAAAAAAAAAAAAAAAAAAAAAAAAAAAAAAAAAAAAAAAAAAAAAAAAAAAAAAAAAAAAAAAAAAAAAAAAAAAAAAAAAAAAAAAAAAAAAAAAAAAAAAAAAAAAAAAAAAAAAAAAAAAAAAAAAAAAAAAAAAAAAAAAAAAAAAAAAAAAAAAAAAAAAAAAAAAAAAAAAAAAAAAAAAAAAAAAAAAAAAAAAAAAAAAAAAAAAAAAAAAAAAAAAAAAAAAAAAAAAAAAAAAAAAAAAAAAAAAAAAAAAAAAAAAAAAAAAAAAAAAAAAAAAAAAAAAAAAAAAAAAAAAAAAAAAAAAAAAAAAAAAAAAAAAAAAAAAAAAAAAAAAAAAAAAAAAAAAAAAAAAAAAAAAAAAAAAAAAAAAAAAAAAAAAAAAAAAAAAAAAAAAAAAAAAAAAAAAAAAAAAAAAAAAAAAAAAAAAAAAAAAAAAAAAAAAAAAAAAAAAAAAAAAAAAAAAAAAAAAAAAAAAAAAAAAPZYQEUj0ZjeX9JZ/F8HTjXbKxuk37qpf3oAvQayUHTM8rtlS/Ek5grXJ6TaJu43F3LpdyP/fPMnMuU/LqTZZq/iO1Q=</c2pa:manifest></metadata>
  <title id="pt-title">ProjekTeam</title>
  <style>
    :root {
      --pt-navy:  #273356;   /* Projek, top-left node            */
      --pt-blue:  #2D8CCB;   /* Team, checkmark, top-right node   */
      --pt-teal:  #68A9B4;   /* left node                         */
      --pt-light: #84B5D0;   /* bottom node                       */
      --pt-frame: #74A9C6;   /* thin frame lines behind the check */
    }
    .navy  { fill: var(--pt-navy,  #273356); }
    .blue  { fill: var(--pt-blue,  #2D8CCB); }
    .teal  { fill: var(--pt-teal,  #68A9B4); }
    .light { fill: var(--pt-light, #84B5D0); }
    .frame { stroke: var(--pt-frame, #74A9C6); }
    .ln    { fill: none; stroke-linecap: butt; }
  </style>
  <defs>
    <linearGradient id="g-navy-teal" gradientUnits="userSpaceOnUse" x1="146" y1="133" x2="109" y2="352">
      <stop offset="0"   stop-color="#273356"/>
      <stop offset="0.35" stop-color="#1E4A6C"/>
      <stop offset="1"   stop-color="#14516C"/>
    </linearGradient>
    <linearGradient id="g-navy-blue" gradientUnits="userSpaceOnUse" x1="142" y1="134" x2="368" y2="185">
      <stop offset="0"   stop-color="#273356"/>
      <stop offset="0.5" stop-color="#15546F"/>
      <stop offset="1"   stop-color="#1D719E"/>
    </linearGradient>
    <linearGradient id="g-stem" gradientUnits="userSpaceOnUse" x1="470" y1="80" x2="285" y2="263">
      <stop offset="0"   stop-color="#2D8CCB"/>
      <stop offset="1"   stop-color="#3A9AD3"/>
    </linearGradient>
    <linearGradient id="g-teal-light" gradientUnits="userSpaceOnUse" x1="105" y1="352" x2="321" y2="445">
      <stop offset="0"   stop-color="#68A9B4"/>
      <stop offset="1"   stop-color="#84B5D0"/>
    </linearGradient>
  </defs>

  <!-- ===== MARK ===== -->
  <g id="mark">
    <!-- thin frame lines (behind everything) -->
    <g class="ln frame" stroke-width="18" stroke-linejoin="round">
      <path d="M441 178 V384 L312 446"/>
      <path d="M236 318 L221 416"/>
    </g>
    <!-- node connectors -->
    <g class="ln" stroke-width="20">
      <path d="M146 133 L109 352"  stroke="url(#g-navy-teal)"/>
      <path d="M142 134 L368 185"  stroke="url(#g-navy-blue)"/>
      <path d="M105 352 L321 445"  stroke="url(#g-teal-light)" stroke-width="18"/>
    </g>
    <!-- stem from the top-right node down to the check -->
    <path class="ln" d="M470 80 L285 263" stroke="url(#g-stem)" stroke-width="19"/>
    <!-- checkmark -->
    <path class="blue" d="M217 230 L183 257 L305 400 L474 162 L443 172 L302 318 Z" stroke="#2D8CCB" stroke-width="2" stroke-linejoin="round"/>
    <!-- nodes -->
    <circle class="navy"  cx="142.5" cy="133" r="42"/>
    <circle class="blue"  cx="470.5" cy="80"  r="43"/>
    <circle class="teal"  cx="105"   cy="352" r="43"/>
    <circle class="light" cx="321.5" cy="445" r="43"/>
  </g>

  <!-- ===== WORDMARK (outlined, Source Sans 3 Semibold) ===== -->
  <g id="wordmark">
    <path class="navy" d="M621.0 368.5V191.1272727272727H671.2827272727272Q689.1013636363637 191.1272727272727 703.0145454545454 196.280303030303Q716.9277272727273 201.4333333333333 724.9827272727273 213.36666666666665Q733.0377272727274 225.29999999999998 733.0377272727274 245.9121212121212Q733.0377272727274 265.43939393939394 724.9827272727273 278.18636363636364Q716.9277272727273 290.93333333333334 703.2586363636365 297.1712121212121Q689.5895454545455 303.4090909090909 672.2590909090909 303.4090909090909H649.3145454545455V368.5ZM649.3145454545455 278.18636363636364H670.0622727272728Q705.2113636363637 278.18636363636364 705.2113636363637 245.9121212121212Q705.2113636363637 229.0969696969697 696.0579545454545 222.72348484848484Q686.9045454545454 216.35 669.0859090909091 216.35H649.3145454545455Z M760.0 368.5V235.33484848484846H783.1886363636363L785.1413636363636 258.93030303030304H786.1177272727273Q792.4640909090908 245.9121212121212 801.373409090909 238.99621212121212Q810.2827272727272 232.080303030303 820.0463636363636 232.080303030303Q828.5895454545454 232.080303030303 833.7154545454545 234.79242424242423L828.1013636363635 261.3712121212121Q825.1722727272727 260.55757575757576 822.7313636363635 260.15075757575755Q820.2904545454545 259.7439393939394 816.385 259.7439393939394Q809.3063636363636 259.7439393939394 801.4954545454545 265.84621212121215Q793.6845454545454 271.94848484848484 788.0704545454545 287.1363636363636V368.5Z M893.8731818181818 371.75454545454545Q878.9836363636364 371.75454545454545 866.0468181818183 363.4825757575758Q853.11 355.21060606060604 845.0550000000001 339.6159090909091Q837.0 324.0212121212121 837.0 302.0530303030303Q837.0 279.81363636363636 845.0550000000001 264.2189393939394Q853.11 248.62424242424242 866.0468181818183 240.35227272727272Q878.9836363636364 232.080303030303 893.8731818181818 232.080303030303Q909.0068181818182 232.080303030303 921.9436363636364 240.35227272727272Q934.8804545454545 248.62424242424242 942.9354545454546 264.2189393939394Q950.9904545454546 279.81363636363636 950.9904545454546 302.0530303030303Q950.9904545454546 324.0212121212121 942.9354545454546 339.6159090909091Q934.8804545454545 355.21060606060604 921.9436363636364 363.4825757575758Q909.0068181818182 371.75454545454545 893.8731818181818 371.75454545454545ZM893.8731818181818 346.26060606060605Q907.054090909091 346.26060606060605 914.6209090909092 334.0560606060606Q922.1877272727273 321.8515151515152 922.1877272727273 302.0530303030303Q922.1877272727273 281.98333333333335 914.6209090909092 269.77878787878785Q907.054090909091 257.5742424242424 893.8731818181818 257.5742424242424Q880.6922727272728 257.5742424242424 873.2475 269.77878787878785Q865.8027272727272 281.98333333333335 865.8027272727272 302.0530303030303Q865.8027272727272 321.8515151515152 873.2475 334.0560606060606Q880.6922727272728 346.26060606060605 893.8731818181818 346.26060606060605Z M973.5272727272727 424.369696969697Q967.1809090909092 424.369696969697 962.299090909091 423.28484848484845Q957.4172727272728 422.2 954.0 420.57272727272726L959.37 397.51969696969695Q961.8109090909091 398.3333333333333 964.4959090909092 399.0113636363636Q967.1809090909092 399.68939393939394 969.6218181818182 399.68939393939394Q977.6768181818182 399.68939393939394 980.4838636363636 393.58712121212125Q983.290909090909 387.4848484848485 983.290909090909 375.82272727272726V235.33484848484846H1011.6054545454546V375.280303030303Q1011.6054545454546 389.3833333333333 1007.9440909090908 400.5030303030303Q1004.2827272727272 411.6227272727273 995.9836363636364 417.9962121212121Q987.6845454545455 424.369696969697 973.5272727272727 424.369696969697ZM997.4481818181819 212.01060606060605Q989.8813636363636 212.01060606060605 985.2436363636364 207.12878787878788Q980.6059090909091 202.24696969696967 980.6059090909091 194.11060606060605Q980.6059090909091 186.24545454545452 985.2436363636364 181.36363636363635Q989.8813636363636 176.48181818181817 997.4481818181819 176.48181818181817Q1005.0150000000001 176.48181818181817 1009.6527272727274 181.36363636363635Q1014.2904545454546 186.24545454545452 1014.2904545454546 194.11060606060605Q1014.2904545454546 202.24696969696967 1009.6527272727274 207.12878787878788Q1005.0150000000001 212.01060606060605 997.4481818181819 212.01060606060605Z M1087.1409090909092 256.76060606060605Q1078.3536363636363 256.76060606060605 1070.420681818182 263.405303030303Q1062.4877272727274 270.05 1059.8027272727272 287.6787878787879H1111.0618181818181Q1111.0618181818181 273.30454545454546 1105.2036363636362 265.0325757575757Q1099.3454545454545 256.76060606060605 1087.1409090909092 256.76060606060605ZM1090.5581818181818 371.75454545454545Q1073.715909090909 371.75454545454545 1060.1688636363638 363.4825757575758Q1046.6218181818183 355.21060606060604 1038.8109090909093 339.6159090909091Q1031.0 324.0212121212121 1031.0 301.78181818181815Q1031.0 280.08484848484846 1039.055 264.4901515151515Q1047.1100000000001 248.89545454545453 1059.8027272727272 240.48787878787877Q1072.4954545454545 232.080303030303 1086.6527272727274 232.080303030303Q1103.0068181818183 232.080303030303 1113.990909090909 240.21666666666664Q1124.975 248.3530303030303 1130.4670454545453 262.59166666666664Q1135.959090909091 276.830303030303 1135.959090909091 295.27272727272725Q1135.959090909091 304.2227272727273 1134.4945454545455 311.54545454545456H1059.3145454545454Q1061.7554545454545 329.71666666666664 1071.6411363636364 338.2598484848485Q1081.5268181818183 346.8030303030303 1093.9754545454546 346.8030303030303Q1108.865 346.8030303030303 1121.8018181818181 337.58181818181816L1131.5654545454545 357.6515151515151Q1123.2663636363636 364.1606060606061 1112.6484090909091 367.9575757575758Q1102.0304545454546 371.75454545454545 1090.5581818181818 371.75454545454545Z M1160.0 368.5V177.0242424242424H1187.8263636363636V296.3575757575758H1188.5586363636364L1232.495 235.33484848484846H1263.4945454545455L1222.7313636363635 289.8484848484849L1267.644090909091 368.5H1237.1327272727272L1206.3772727272726 310.7318181818182L1187.8263636363636 334.3272727272727V368.5Z" stroke="var(--pt-navy, #273356)" stroke-width="3" stroke-linejoin="round"/>
    <path class="blue" d="M1317.1331818181818 368.5V217.7060606060606H1271.0V191.1272727272727H1391.5809090909092V217.7060606060606H1345.4477272727274V368.5Z M1436.1409090909092 256.76060606060605Q1427.3536363636363 256.76060606060605 1419.420681818182 263.405303030303Q1411.4877272727274 270.05 1408.8027272727272 287.6787878787879H1460.0618181818181Q1460.0618181818181 273.30454545454546 1454.2036363636362 265.0325757575757Q1448.3454545454545 256.76060606060605 1436.1409090909092 256.76060606060605ZM1439.5581818181818 371.75454545454545Q1422.715909090909 371.75454545454545 1409.1688636363638 363.4825757575758Q1395.6218181818183 355.21060606060604 1387.8109090909093 339.6159090909091Q1380.0 324.0212121212121 1380.0 301.78181818181815Q1380.0 280.08484848484846 1388.055 264.4901515151515Q1396.1100000000001 248.89545454545453 1408.8027272727272 240.48787878787877Q1421.4954545454545 232.080303030303 1435.6527272727274 232.080303030303Q1452.0068181818183 232.080303030303 1462.990909090909 240.21666666666664Q1473.975 248.3530303030303 1479.4670454545453 262.59166666666664Q1484.959090909091 276.830303030303 1484.959090909091 295.27272727272725Q1484.959090909091 304.2227272727273 1483.4945454545455 311.54545454545456H1408.3145454545454Q1410.7554545454545 329.71666666666664 1420.6411363636364 338.2598484848485Q1430.5268181818183 346.8030303030303 1442.9754545454546 346.8030303030303Q1457.865 346.8030303030303 1470.8018181818181 337.58181818181816L1480.5654545454545 357.6515151515151Q1472.2663636363636 364.1606060606061 1461.6484090909091 367.9575757575758Q1451.0304545454546 371.75454545454545 1439.5581818181818 371.75454545454545Z M1543.6372727272726 371.75454545454545Q1528.0154545454545 371.75454545454545 1518.0077272727272 360.9060606060606Q1508.0 350.05757575757576 1508.0 332.7Q1508.0 310.18939393939394 1524.9643181818183 298.66287878787875Q1541.9286363636363 287.1363636363636 1578.7863636363636 282.79696969696965Q1578.5422727272728 272.4909090909091 1573.7825 265.1681818181818Q1569.0227272727273 257.8454545454545 1556.8181818181818 257.8454545454545Q1548.030909090909 257.8454545454545 1539.6097727272727 261.3712121212121Q1531.1886363636363 264.8969696969697 1523.1336363636362 270.3212121212121L1512.881818181818 249.16666666666666Q1522.8895454545454 242.11515151515152 1535.4602272727273 237.09772727272727Q1548.030909090909 232.080303030303 1562.1881818181819 232.080303030303Q1584.6445454545456 232.080303030303 1595.7506818181819 246.86136363636362Q1606.8568181818182 261.6424242424242 1606.8568181818182 289.8484848484849V368.5H1583.668181818182L1581.7154545454546 353.8545454545455H1580.739090909091Q1572.44 361.44848484848484 1563.4086363636363 366.6015151515152Q1554.3772727272726 371.75454545454545 1543.6372727272726 371.75454545454545ZM1552.4245454545455 346.26060606060605Q1559.7472727272727 346.26060606060605 1565.971590909091 342.87045454545455Q1572.195909090909 339.48030303030305 1578.7863636363636 332.7V304.4939393939394Q1554.3772727272726 307.74848484848485 1544.857727272727 313.98636363636365Q1535.3381818181817 320.22424242424245 1535.3381818181817 330.530303030303Q1535.3381818181817 338.9378787878788 1540.2199999999998 342.59924242424245Q1545.101818181818 346.26060606060605 1552.4245454545455 346.26060606060605Z M1636.0 368.5V235.33484848484846H1659.1886363636363L1661.1413636363636 253.5060606060606H1662.1177272727273Q1669.6845454545455 244.5560606060606 1678.5938636363635 238.3181818181818Q1687.5031818181817 232.080303030303 1698.7313636363635 232.080303030303Q1711.9122727272727 232.080303030303 1719.8452272727272 238.45378787878786Q1727.7781818181818 244.8272727272727 1731.9277272727272 255.9469696969697Q1740.4709090909091 245.64090909090908 1749.8684090909092 238.86060606060605Q1759.265909090909 232.080303030303 1770.4940909090908 232.080303030303Q1789.5331818181817 232.080303030303 1798.5645454545454 245.9121212121212Q1807.5959090909091 259.7439393939394 1807.5959090909091 284.96666666666664V368.5H1779.2813636363635V289.03484848484845Q1779.2813636363635 272.4909090909091 1774.7656818181817 265.7106060606061Q1770.25 258.93030303030304 1760.9745454545455 258.93030303030304Q1749.7463636363636 258.93030303030304 1735.8331818181819 275.47424242424245V368.5H1707.7627272727273V289.03484848484845Q1707.7627272727273 272.4909090909091 1703.2470454545455 265.7106060606061Q1698.7313636363635 258.93030303030304 1689.2118181818182 258.93030303030304Q1677.9836363636364 258.93030303030304 1664.0704545454546 275.47424242424245V368.5Z" stroke="var(--pt-blue, #2D8CCB)" stroke-width="3" stroke-linejoin="round"/>
  </g>
</svg>
